<svg width="52" height="55" viewBox="0 0 52 55" fill="none" xmlns="http://www.w3.org/2000/svg">
<path d="M26.3276 30.5886C29.202 30.6121 31.5112 28.3895 31.5455 25.5676C31.5816 22.6409 29.3121 20.3064 26.4125 20.2883C23.5273 20.2703 21.2073 22.5398 21.1802 25.4069C21.1513 28.2758 23.4262 30.567 26.3276 30.5904V30.5886ZM34.1689 25.5206C34.1508 29.7599 30.6554 33.1687 26.3439 33.1542C22.0432 33.1416 18.5875 29.6985 18.6001 25.4394C18.6128 21.1405 22.11 17.6812 26.4233 17.7046C30.715 17.7263 34.1887 21.2308 34.1707 25.5206H34.1689Z" fill="white"/>
<path d="M48.6923 7.78167C48.7013 4.90191 46.4264 2.59811 43.5539 2.58186C40.6687 2.56741 38.3505 4.83872 38.3234 7.70584C38.2981 10.5748 40.573 12.8641 43.4763 12.8858C46.3867 12.9075 48.6815 10.6614 48.6905 7.78347L48.6923 7.78167ZM51.3157 7.80334C51.3031 12.0426 47.8112 15.4604 43.5033 15.4514C39.199 15.4424 35.7469 12.0155 35.7469 7.74917C35.7469 3.45752 39.2442 -0.0126345 43.5557 3.89533e-06C47.8474 0.0126423 51.3283 3.51529 51.3157 7.80334Z" fill="white"/>
<path d="M3.78071 54.5006V48.1958H6.30659V51.8573C9.84174 52.399 12.8804 51.7147 13.9438 48.0477C14.7978 45.1012 12.4416 41.8802 9.35787 41.7141C8.58873 41.6707 7.80876 41.752 7.04323 41.6689C6.62977 41.6238 6.1784 41.4306 5.85341 41.1688C5.15469 40.6091 4.52818 39.9646 3.73376 39.2261C4.11292 39.1701 4.27 39.1232 4.42707 39.125C6.25423 39.1376 8.10305 38.9914 9.90493 39.2081C13.8897 39.6865 16.7279 43.0411 16.6737 46.9681C16.6214 50.8408 13.7001 54.0835 9.70452 54.4663C7.77265 54.6522 5.81008 54.4988 3.78432 54.4988L3.78071 54.5006Z" fill="white"/>
<path d="M46.6251 47.3093C43.9277 44.639 41.418 42.1528 38.8271 39.589H51.6317C51.6317 40.2643 51.6732 40.9486 51.6028 41.622C51.5866 41.7827 51.2038 42.0228 50.9853 42.0264C49.2864 42.0607 47.5874 42.0445 45.8866 42.0481C45.6393 42.0481 45.3919 42.0734 45.094 42.0896C46.8182 43.7886 48.4865 45.4334 50.1945 47.1161C49.9887 47.3508 49.9002 47.4646 49.7991 47.5639C47.4484 49.8912 45.1048 52.2275 42.7288 54.5295C42.4706 54.7804 42.0301 54.9411 41.6636 54.9664C40.75 55.0278 39.8292 54.9862 38.8271 54.9862C41.4487 52.4062 43.9945 49.902 46.6269 47.3111L46.6251 47.3093Z" fill="white"/>
<path d="M0 7.95318C0.47665 6.88795 0.77275 5.95992 1.27287 5.15467C3.71028 1.23495 9.01482 0.32318 12.642 3.13433C13.1747 3.54779 13.4635 3.98472 13.3823 4.67802C13.3227 5.17815 13.3697 5.6891 13.3697 6.26325H10.8709C10.8474 6.20908 10.7986 6.14228 10.7932 6.07367C10.7138 4.79538 10.5784 4.62747 9.32536 4.2754C6.70379 3.53876 4.06416 4.8008 3.02239 7.34654C2.82018 7.83944 2.58727 8.00193 2.07812 7.96221C1.49134 7.91707 0.90094 7.95138 0 7.95138L0 7.95318Z" fill="white"/>
<path d="M11.5388 12.884C12.1202 13.5068 12.6601 14.0864 13.2071 14.6732C11.9126 16.5509 8.29618 17.4555 5.50128 16.5617C2.72624 15.6752 0.243694 12.837 0.312302 10.5513C1.02367 10.5513 1.74045 10.5278 2.45181 10.5675C2.61972 10.5765 2.86346 10.7679 2.92485 10.9286C4.23563 14.4204 8.57784 15.5633 11.5388 12.884Z" fill="white"/>
<path d="M51.6009 52.4206V54.9862H48.8367H45.9659C46.8687 54.0853 47.6306 53.3162 48.4088 52.5633C48.5027 52.4712 48.6832 52.4297 48.824 52.4279C49.7196 52.4152 50.6169 52.4224 51.6009 52.4224V52.4206Z" fill="white"/>
</svg>
